<?xml version="1.0" encoding="UTF-8" standalone="no"?>
<!DOCTYPE svg PUBLIC "-//W3C//DTD SVG 1.1//EN"
 "http://www.w3.org/Graphics/SVG/1.1/DTD/svg11.dtd">
<!-- Generated by graphviz version 13.1.2 (20250808.2320)
 -->
<!-- Title: RNA_PDA Pages: 1 -->
<svg width="489pt" height="205pt"
 viewBox="0.00 0.00 489.00 205.00" xmlns="http://www.w3.org/2000/svg" xmlns:xlink="http://www.w3.org/1999/xlink">
<g id="graph0" class="graph" transform="scale(1 1) rotate(0) translate(4 201.41)">
<title>RNA_PDA</title>
<polygon fill="#1a1a2e" stroke="none" points="-4,4 -4,-201.41 485.4,-201.41 485.4,4 -4,4"/>
<!-- _start -->
<g id="node1" class="node">
<title>_start</title>
</g>
<!-- q0 -->
<g id="node2" class="node">
<title>q0</title>
<ellipse fill="#00ffff" stroke="black" cx="75.55" cy="-47.13" rx="37.83" ry="37.83"/>
<text xml:space="preserve" text-anchor="middle" x="75.55" y="-52.98" font-family="Consolas" font-size="12.00" fill="white">q0</text>
<text xml:space="preserve" text-anchor="middle" x="75.55" y="-35.73" font-family="Consolas" font-size="12.00" fill="white">start</text>
</g>
<!-- _start&#45;&gt;q0 -->
<g id="edge1" class="edge">
<title>_start&#45;&gt;q0</title>
<path fill="none" stroke="#00ffff" d="M0.77,-47.13C1.63,-47.13 12.56,-47.13 25.77,-47.13"/>
<polygon fill="#00ffff" stroke="#00ffff" points="25.71,-50.63 35.71,-47.13 25.71,-43.63 25.71,-50.63"/>
</g>
<!-- q1 -->
<g id="node3" class="node">
<title>q1</title>
<ellipse fill="none" stroke="#ffffff" cx="253.26" cy="-47.13" rx="32.53" ry="32.53"/>
<text xml:space="preserve" text-anchor="middle" x="253.26" y="-52.98" font-family="Consolas" font-size="12.00" fill="white">q1</text>
<text xml:space="preserve" text-anchor="middle" x="253.26" y="-35.73" font-family="Consolas" font-size="12.00" fill="white">loop</text>
</g>
<!-- q0&#45;&gt;q1 -->
<g id="edge2" class="edge">
<title>q0&#45;&gt;q1</title>
<path fill="none" stroke="white" d="M113.81,-47.13C141.61,-47.13 179.67,-47.13 208.84,-47.13"/>
<polygon fill="white" stroke="white" points="208.83,-50.63 218.83,-47.13 208.83,-43.63 208.83,-50.63"/>
<text xml:space="preserve" text-anchor="middle" x="158.38" y="-51.88" font-family="Consolas" font-size="10.00">ε, Z → SZ</text>
</g>
<!-- q1&#45;&gt;q1 -->
<g id="edge3" class="edge">
<title>q1&#45;&gt;q1</title>
<path fill="none" stroke="white" d="M236.23,-75.19C234.84,-87.3 240.51,-97.66 253.26,-97.66 261.82,-97.66 267.19,-92.98 269.37,-86.24"/>
<polygon fill="white" stroke="white" points="272.82,-86.95 270.15,-76.7 265.84,-86.38 272.82,-86.95"/>
<text xml:space="preserve" text-anchor="middle" x="253.26" y="-187.91" font-family="Consolas" font-size="10.00">ε, S → )S(</text>
<text xml:space="preserve" text-anchor="middle" x="253.26" y="-173.66" font-family="Consolas" font-size="10.00">ε, S → SS</text>
<text xml:space="preserve" text-anchor="middle" x="253.26" y="-159.41" font-family="Consolas" font-size="10.00">ε, S → .</text>
<text xml:space="preserve" text-anchor="middle" x="253.26" y="-145.16" font-family="Consolas" font-size="10.00">ε, S → ε</text>
<text xml:space="preserve" text-anchor="middle" x="253.26" y="-130.91" font-family="Consolas" font-size="10.00">(, ( → ε</text>
<text xml:space="preserve" text-anchor="middle" x="253.26" y="-116.66" font-family="Consolas" font-size="10.00">), ) → ε</text>
<text xml:space="preserve" text-anchor="middle" x="253.26" y="-102.41" font-family="Consolas" font-size="10.00">., . → ε</text>
</g>
<!-- q2 -->
<g id="node4" class="node">
<title>q2</title>
<ellipse fill="#ccff00" stroke="black" cx="434.26" cy="-47.13" rx="43.13" ry="43.13"/>
<ellipse fill="none" stroke="black" cx="434.26" cy="-47.13" rx="47.13" ry="47.13"/>
<text xml:space="preserve" text-anchor="middle" x="434.26" y="-52.98" font-family="Consolas" font-size="12.00" fill="white">q2</text>
<text xml:space="preserve" text-anchor="middle" x="434.26" y="-35.73" font-family="Consolas" font-size="12.00" fill="white">accept</text>
</g>
<!-- q1&#45;&gt;q2 -->
<g id="edge4" class="edge">
<title>q1&#45;&gt;q2</title>
<path fill="none" stroke="white" d="M286.26,-47.13C310.94,-47.13 345.74,-47.13 375.28,-47.13"/>
<polygon fill="white" stroke="white" points="375.22,-50.63 385.22,-47.13 375.22,-43.63 375.22,-50.63"/>
<text xml:space="preserve" text-anchor="middle" x="345.13" y="-51.88" font-family="Consolas" font-size="10.00">ε, Z → ε</text>
</g>
</g>
</svg>
